<svg xmlns="http://www.w3.org/2000/svg"  viewBox="0 0 100 100" width="100px" height="100px"><path d="M 31 17.988281 C 23.82 17.988281 18 23.808281 18 30.988281 L 18 69.988281 C 18 77.168281 23.82 82.988281 31 82.988281 L 70 82.988281 C 77.179 82.988281 83 77.168281 83 69.988281 L 83 30.988281 C 83 23.808281 77.18 17.988281 70 17.988281 L 31 17.988281 z M 31 19.988281 L 70 19.988281 C 76.075 19.988281 81 24.913281 81 30.988281 L 81 69.988281 C 81 76.063281 76.075 80.988281 70 80.988281 L 31 80.988281 C 24.925 80.988281 20 76.063281 20 69.988281 L 20 30.988281 C 20 24.913281 24.924 19.988281 31 19.988281 z M 33.837891 22.988281 C 27.852891 22.988281 23 27.839219 23 33.824219 L 23 67.150391 C 23 73.135391 27.852891 77.988281 33.837891 77.988281 L 67.162109 77.988281 C 73.147109 77.988281 78 73.136391 78 67.150391 L 78 48.488281 C 78 48.212281 77.776 47.988281 77.5 47.988281 C 77.224 47.988281 77 48.212281 77 48.488281 L 77 67.150391 C 77 72.583391 72.595109 76.988281 67.162109 76.988281 L 33.837891 76.988281 C 28.404891 76.988281 24 72.583391 24 67.150391 L 24 33.824219 C 24 28.391219 28.404891 23.988281 33.837891 23.988281 L 67.5 23.988281 C 67.776 23.988281 68 23.764281 68 23.488281 C 68 23.212281 67.776 22.988281 67.5 22.988281 L 33.837891 22.988281 z M 51 32 C 40.799 32 32.5 40.299 32.5 50.5 C 32.5 52.063 32.696938 53.62 33.085938 55.125 C 33.263938 55.816 33.486047 56.507641 33.748047 57.181641 C 34.082047 58.043641 34.484219 58.886313 34.949219 59.695312 L 32.519531 68.365234 C 32.471531 68.535234 32.517625 68.720656 32.640625 68.847656 C 32.735625 68.945656 32.866 69 33 69 C 33.04 69 33.079141 68.994375 33.119141 68.984375 L 35.619141 68.365234 C 35.887141 68.299234 36.050375 68.028719 35.984375 67.761719 C 35.918375 67.494719 35.648859 67.329484 35.380859 67.396484 L 33.712891 67.808594 L 35.96875 59.761719 C 36.00575 59.630719 35.986969 59.490047 35.917969 59.373047 C 35.435969 58.555047 35.020688 57.695359 34.679688 56.818359 C 34.432688 56.181359 34.222687 55.528 34.054688 54.875 C 33.687687 53.451 33.5 51.979 33.5 50.5 C 33.5 40.851 41.351 33 51 33 C 60.649 33 68.5 40.851 68.5 50.5 C 68.5 60.149 60.649 68 51 68 C 48.016 68 45.06475 67.231297 42.46875 65.779297 C 42.35775 65.717297 42.231469 65.700469 42.105469 65.730469 L 40.380859 66.15625 C 40.113859 66.22225 39.949625 66.492719 40.015625 66.761719 C 40.081625 67.027719 40.347141 67.188953 40.619141 67.126953 L 42.154297 66.746094 C 44.857297 68.221094 47.912 69 51 69 C 61.201 69 69.5 60.701 69.5 50.5 C 69.5 40.299 61.201 32 51 32 z M 77.5 36.566406 C 77.224 36.566406 77 36.790406 77 37.066406 L 77 39.066406 C 77 39.342406 77.224 39.566406 77.5 39.566406 C 77.776 39.566406 78 39.343406 78 39.066406 L 78 37.066406 C 78 36.790406 77.776 36.566406 77.5 36.566406 z M 77.5 40.566406 C 77.224 40.566406 77 40.790406 77 41.066406 L 77 45.066406 C 77 45.342406 77.224 45.566406 77.5 45.566406 C 77.776 45.566406 78 45.343406 78 45.066406 L 78 41.066406 C 78 40.790406 77.776 40.566406 77.5 40.566406 z M 44.535156 41 C 44.245156 41 43.499422 41.075578 42.857422 41.767578 L 42.765625 41.863281 C 42.236625 42.419281 41 43.720156 41 46.160156 C 41 48.445156 42.469328 50.640234 43.111328 51.490234 L 43.189453 51.599609 C 44.606453 53.602609 47.59875 57.226375 51.71875 58.984375 C 52.86175 59.470375 53.764313 59.771437 54.570312 60.023438 C 55.322312 60.260437 56.021953 60.335938 56.626953 60.335938 C 57.116953 60.335938 57.546531 60.286328 57.894531 60.236328 C 58.925531 60.083328 61.119281 58.966609 61.613281 57.599609 C 62.012281 56.493609 62.120422 55.289328 61.857422 54.861328 C 61.680422 54.570328 61.366703 54.420422 60.970703 54.232422 L 60.707031 54.105469 C 60.427031 53.965469 57.813969 52.686953 57.292969 52.501953 C 56.897969 52.358953 56.167563 52.0975 55.601562 52.9375 C 55.309562 53.3695 54.452031 54.373016 54.082031 54.791016 C 53.973031 54.913016 53.937281 54.954922 53.613281 54.794922 C 53.526281 54.751922 53.407719 54.700672 53.261719 54.638672 C 52.567719 54.340672 51.275625 53.787031 49.765625 52.457031 C 48.407625 51.261031 47.467953 49.789891 47.126953 49.212891 C 47.034953 49.056891 47.034672 49.056078 47.263672 48.830078 C 47.420672 48.677078 47.600297 48.462094 47.779297 48.246094 L 48.027344 47.951172 C 48.281344 47.659172 48.394391 47.432969 48.525391 47.167969 L 48.589844 47.035156 C 48.897844 46.424156 48.633828 45.904328 48.548828 45.736328 C 48.476828 45.590328 47.970562 44.375281 47.601562 43.488281 L 47.046875 42.158203 C 46.621875 41.151203 46.077953 41.040531 45.501953 41.019531 C 45.207953 41.004531 44.871156 41 44.535156 41 z M 44.535156 42 C 44.855156 42 45.173172 42.003625 45.451172 42.015625 L 45.589844 42.017578 C 45.769844 42.020578 45.899047 42.014922 46.123047 42.544922 L 46.677734 43.871094 C 47.214734 45.160094 47.571297 46.016594 47.654297 46.183594 C 47.757297 46.386594 47.747312 46.479984 47.695312 46.583984 L 47.626953 46.722656 C 47.510953 46.956656 47.441437 47.098969 47.273438 47.292969 L 47.009766 47.603516 C 46.853766 47.792516 46.696547 47.980234 46.560547 48.115234 C 46.326547 48.347234 45.777625 48.88875 46.265625 49.71875 C 46.630625 50.33775 47.638516 51.914078 49.103516 53.205078 C 50.733516 54.642078 52.175187 55.259641 52.867188 55.556641 C 52.992188 55.610641 53.095922 55.652453 53.169922 55.689453 C 53.605922 55.904453 54.247078 56.110172 54.830078 55.451172 C 55.135078 55.105172 56.083734 54.006094 56.427734 53.496094 C 56.554734 53.307094 56.558125 53.300359 56.953125 53.443359 C 57.342125 53.581359 59.613672 54.678953 60.263672 55.001953 L 60.539062 55.134766 C 60.724062 55.223766 60.957516 55.334938 60.978516 55.335938 C 61.030516 55.506937 61.016922 56.301766 60.669922 57.259766 C 60.353922 58.133766 58.623141 59.115141 57.744141 59.244141 C 57.066141 59.345141 56.031188 59.434359 54.867188 59.068359 C 54.086187 58.824359 53.211375 58.534453 52.109375 58.064453 C 48.216375 56.403453 45.361859 52.940438 44.005859 51.023438 L 43.898438 50.873047 C 43.328438 50.116047 42 48.142156 42 46.160156 C 42 44.119156 43.007234 43.061734 43.490234 42.552734 L 43.589844 42.447266 C 43.975844 42.031266 44.411156 42 44.535156 42 z M 38.580078 66.642578 C 38.515891 66.632453 38.448609 66.635094 38.380859 66.652344 L 37.380859 66.900391 C 37.112859 66.965391 36.949625 67.235906 37.015625 67.503906 C 37.070625 67.732906 37.274 67.884766 37.5 67.884766 C 37.539 67.884766 37.579141 67.879141 37.619141 67.869141 L 38.619141 67.623047 C 38.887141 67.557047 39.050375 67.285578 38.984375 67.017578 C 38.934125 66.817328 38.772641 66.672953 38.580078 66.642578 z"/></svg>