<svg xmlns="http://www.w3.org/2000/svg" xmlns:xlink="http://www.w3.org/1999/xlink" viewBox="0,0,256,256" width="100px" height="100px" fill-rule="nonzero"><g fill="none" fill-rule="nonzero" stroke="none" stroke-width="1" stroke-linecap="butt" stroke-linejoin="miter" stroke-miterlimit="10" stroke-dasharray="" stroke-dashoffset="0" font-family="none" font-weight="none" font-size="none" text-anchor="none" style="mix-blend-mode: normal"><g transform="scale(2.56,2.56)"><path d="M69.961,81.654h-39c-6.6,0 -12,-5.4 -12,-12v-39c0,-6.6 5.4,-12 12,-12h39c6.6,0 12,5.4 12,12v39c0,6.6 -5.4,12 -12,12z" fill="#e49696"></path><path d="M69.961,82.654h-39c-7.168,0 -13,-5.832 -13,-13v-39c0,-7.168 5.832,-13 13,-13h39c7.168,0 13,5.832 13,13v39c0,7.168 -5.832,13 -13,13zM30.961,19.654c-6.065,0 -11,4.935 -11,11v39c0,6.065 4.935,11 11,11h39c6.065,0 11,-4.935 11,-11v-39c0,-6.065 -4.935,-11 -11,-11z" fill="#1f212b"></path><path d="M77.461,48.154v18.663c0,5.685 -4.652,10.337 -10.337,10.337h-33.326c-5.685,0 -10.337,-4.652 -10.337,-10.337v-33.326c0,-5.685 4.652,-10.337 10.337,-10.337h33.663" fill="#e49696"></path><path d="M67.124,77.654h-33.326c-5.976,0 -10.837,-4.861 -10.837,-10.837v-33.327c0,-5.976 4.861,-10.837 10.837,-10.837h33.663c0.276,0 0.5,0.224 0.5,0.5c0,0.276 -0.224,0.5 -0.5,0.5h-33.663c-5.424,0 -9.837,4.413 -9.837,9.837v33.326c0,5.424 4.413,9.837 9.837,9.837h33.326c5.424,0 9.837,-4.413 9.837,-9.837v-18.662c0,-0.276 0.224,-0.5 0.5,-0.5c0.276,0 0.5,0.224 0.5,0.5v18.663c0,5.975 -4.862,10.837 -10.837,10.837z" fill="#1f212b"></path><path d="M77.461,46.654c-0.276,0 -0.5,-0.224 -0.5,-0.5v-4c0,-0.276 0.224,-0.5 0.5,-0.5c0.276,0 0.5,0.224 0.5,0.5v4c0,0.276 -0.224,0.5 -0.5,0.5zM77.461,40.654c-0.276,0 -0.5,-0.224 -0.5,-0.5v-2c0,-0.276 0.224,-0.5 0.5,-0.5c0.276,0 0.5,0.224 0.5,0.5v2c0,0.276 -0.224,0.5 -0.5,0.5z" fill="#1f212b"></path><path d="M63.78,40.024c-0.371,-0.955 -0.865,-1.765 -1.675,-2.574c-0.809,-0.809 -1.619,-1.304 -2.574,-1.675c-0.922,-0.36 -1.989,-0.607 -3.529,-0.674c-1.551,-0.067 -2.046,-0.09 -6.002,-0.09c-3.956,0 -4.451,0.011 -6.002,0.09c-1.551,0.067 -2.608,0.315 -3.529,0.674c-0.955,0.371 -1.765,0.865 -2.574,1.675c-0.809,0.809 -1.304,1.619 -1.675,2.574c-0.36,0.922 -0.607,1.989 -0.674,3.529c-0.067,1.551 -0.09,2.046 -0.09,6.002c0,3.956 0.011,4.451 0.09,6.002c0.067,1.551 0.315,2.608 0.674,3.529c0.371,0.955 0.865,1.765 1.675,2.574c0.809,0.809 1.619,1.304 2.574,1.675c0.922,0.36 1.989,0.607 3.529,0.674c1.551,0.067 2.046,0.09 6.002,0.09c3.956,0 4.451,-0.011 6.002,-0.09c1.551,-0.067 2.608,-0.315 3.529,-0.674c0.955,-0.371 1.765,-0.865 2.574,-1.675c0.809,-0.809 1.304,-1.619 1.675,-2.574c0.36,-0.922 0.607,-1.989 0.674,-3.529c0.067,-1.551 0.09,-2.046 0.09,-6.002c0,-3.956 -0.011,-4.451 -0.09,-6.002c-0.067,-1.551 -0.314,-2.608 -0.674,-3.529z" fill="#9e8084"></path><path d="M50,64.6c-3.949,0 -4.466,-0.022 -6.002,-0.09c-1.482,-0.065 -2.621,-0.283 -3.711,-0.709c-1.084,-0.42 -1.931,-0.972 -2.746,-1.787c-0.815,-0.815 -1.366,-1.662 -1.788,-2.746c-0.426,-1.091 -0.644,-2.229 -0.708,-3.689c-0.079,-1.557 -0.09,-2.044 -0.09,-6.023c0,-3.945 0.022,-4.462 0.089,-5.998c0.065,-1.487 0.283,-2.625 0.709,-3.715c0.421,-1.084 0.972,-1.931 1.787,-2.746c0.814,-0.815 1.662,-1.366 2.746,-1.787c1.091,-0.426 2.229,-0.645 3.689,-0.708c1.557,-0.079 2.044,-0.09 6.024,-0.09c3.945,0 4.462,0.022 5.998,0.089c1.487,0.065 2.625,0.283 3.715,0.709c1.083,0.421 1.931,0.972 2.746,1.787c0.815,0.814 1.366,1.661 1.787,2.746v0c0.426,1.092 0.645,2.229 0.708,3.689c0.08,1.556 0.091,2.042 0.091,6.024c0,3.948 -0.022,4.466 -0.09,6.002c-0.065,1.482 -0.283,2.621 -0.709,3.711c-0.42,1.083 -0.972,1.931 -1.787,2.746c-0.815,0.815 -1.662,1.367 -2.747,1.788c-1.091,0.426 -2.229,0.644 -3.688,0.708c-1.556,0.078 -2.042,0.089 -6.023,0.089zM50,35.511c-3.957,0 -4.438,0.011 -5.977,0.089c-1.349,0.059 -2.388,0.256 -3.373,0.641c-0.95,0.369 -1.69,0.851 -2.402,1.562c-0.712,0.711 -1.193,1.452 -1.562,2.401c-0.384,0.984 -0.582,2.024 -0.641,3.37c-0.067,1.545 -0.089,2.057 -0.089,5.98c0,3.956 0.011,4.438 0.089,5.977c0.059,1.349 0.256,2.388 0.641,3.373c0.369,0.949 0.851,1.69 1.562,2.402c0.712,0.712 1.453,1.194 2.401,1.562c0.985,0.385 2.024,0.582 3.371,0.641c1.542,0.067 2.054,0.09 5.98,0.09c3.957,0 4.438,-0.011 5.977,-0.09c1.349,-0.059 2.388,-0.256 3.373,-0.641c0.949,-0.368 1.689,-0.85 2.402,-1.562c0.713,-0.712 1.194,-1.453 1.562,-2.401c0.385,-0.985 0.582,-2.024 0.641,-3.371c0.067,-1.542 0.09,-2.054 0.09,-5.98c0,-3.958 -0.011,-4.439 -0.09,-5.977c-0.059,-1.349 -0.256,-2.388 -0.641,-3.373c0,0 0,0 0,-0.001c-0.368,-0.948 -0.85,-1.689 -1.562,-2.401c-0.712,-0.712 -1.453,-1.194 -2.401,-1.562c-0.985,-0.385 -2.024,-0.582 -3.37,-0.641c-1.546,-0.066 -2.058,-0.088 -5.981,-0.088z" fill="#1f212b"></path><path d="M49.989,42.081c-4.125,0 -7.475,3.349 -7.475,7.475c0,4.126 3.349,7.475 7.475,7.475c4.126,0 7.475,-3.349 7.475,-7.475c0,-4.126 -3.35,-7.475 -7.475,-7.475z" fill="#e49696"></path><path d="M49.989,57.53c-4.397,0 -7.975,-3.577 -7.975,-7.974c0,-4.397 3.578,-7.975 7.975,-7.975c4.397,0 7.974,3.577 7.974,7.975c0,4.396 -3.577,7.974 -7.974,7.974zM49.989,42.581c-3.846,0 -6.975,3.129 -6.975,6.975c0,3.846 3.129,6.974 6.975,6.974c3.846,0 6.974,-3.128 6.974,-6.974c0,-3.846 -3.128,-6.975 -6.974,-6.975z" fill="#1f212b"></path><path d="M58.03,39.54c-0.96208,0 -1.742,0.77992 -1.742,1.742c0,0.96208 0.77992,1.742 1.742,1.742c0.96208,0 1.742,-0.77992 1.742,-1.742c0,-0.96208 -0.77992,-1.742 -1.742,-1.742z" fill="#e49696"></path><path d="M58.03,43.524c-1.236,0 -2.242,-1.006 -2.242,-2.242c0,-1.236 1.006,-2.242 2.242,-2.242c1.236,0 2.242,1.006 2.242,2.242c0,1.236 -1.005,2.242 -2.242,2.242zM58.03,40.039c-0.685,0 -1.242,0.557 -1.242,1.242c0,0.685 0.557,1.242 1.242,1.242c0.685,0 1.242,-0.557 1.242,-1.242c0,-0.685 -0.556,-1.242 -1.242,-1.242z" fill="#1f212b"></path></g></g></svg>